<?xml version="1.0" encoding="UTF-8"?>
<svg id="Layer_1" data-name="Layer 1" xmlns="http://www.w3.org/2000/svg" viewBox="0 0 16 7">
  <defs>
    <style>
      .cls-1 {
        fill: #0c2e5c;
      }
    </style>
  </defs>
  <path class="cls-1" d="m4.6,4.76c2.36,0,4.73,0,7.1.02.25,0,.45-.05.65-.15.62-.31,1.25-.6,1.88-.89.33-.15.33-.31-.02-.47-.72-.32-1.43-.64-2.15-.96-.12-.05-.27-.09-.4-.09-2.36,0-4.72,0-7.06,0v2.53Zm6.42-.67s.07-.06.11-.09c.19-.14.38-.28.58-.42.09-.06.1-.1,0-.17-.22-.14-.43-.28-.64-.43-.04-.03-.08-.06-.15-.12.34,0,.63-.08.91.05.35.16.71.32,1.06.48.13.06.14.08.02.14-.37.18-.73.36-1.11.52-.23.1-.51.04-.77.05,0-.01-.01-.02-.02-.03Z"/>
  <path class="cls-1" d="m1.52,2.23h1.65c.49,0,.88.4.88.88v.76c0,.49-.4.88-.88.88h-1.65v-2.53h0Z" transform="translate(5.57 6.99) rotate(-180)"/>
</svg>